<svg width="500" height="501" viewBox="0 0 500 501" fill="none" xmlns="http://www.w3.org/2000/svg">
<g clip-path="url(#clip0_1108_4103)">
<path d="M277.53 334.805C217.592 334.805 168.227 379.858 161.833 437.781C161.084 444.624 166.562 450.568 173.471 450.568H381.588C388.497 450.568 393.975 444.607 393.226 437.781C386.832 379.858 337.467 334.805 277.53 334.805Z" fill="url(#paint0_radial_1108_4103)"/>
<path opacity="0.9" d="M183.877 373.814C143.919 373.814 111.02 403.85 106.758 442.46C106.258 447.022 109.904 450.984 114.516 450.984H253.255C257.867 450.984 261.513 447.022 261.014 442.46C256.751 403.85 223.836 373.814 183.877 373.814Z" fill="url(#paint1_linear_1108_4103)"/>
<g opacity="0.9">
<path d="M262.112 140.225C256.751 145.586 254.021 152.712 254.021 159.755C254.021 166.797 256.751 173.923 262.112 179.284C267.473 184.645 274.599 187.376 281.642 187.376C288.685 187.376 295.811 184.645 301.172 179.284C308.83 171.625 313.759 145.952 317.088 128.887C318.054 124.924 316.556 123.259 312.51 124.308C295.444 127.655 269.838 132.483 262.112 140.225Z" fill="url(#paint2_linear_1108_4103)"/>
</g>
<g opacity="0.9">
<path d="M262.112 203.892C256.751 209.253 254.021 216.379 254.021 223.422C254.021 230.464 256.751 237.59 262.112 242.951C267.473 248.312 274.599 251.043 281.642 251.043C288.685 251.043 295.811 248.312 301.172 242.951C308.83 235.292 313.759 209.619 317.088 192.554C318.054 188.591 316.556 186.926 312.51 187.975C295.444 191.322 269.838 196.15 262.112 203.892Z" fill="url(#paint3_linear_1108_4103)"/>
</g>
<g opacity="0.9">
<path d="M262.112 267.559C256.751 272.92 254.021 280.046 254.021 287.089C254.021 294.131 256.751 301.257 262.112 306.618C267.473 311.979 274.599 314.71 281.642 314.71C288.685 314.71 295.811 311.979 301.172 306.618C308.83 298.959 313.759 273.286 317.088 256.221C318.054 252.258 316.556 250.593 312.51 251.642C295.444 254.989 269.838 259.817 262.112 267.559Z" fill="url(#paint4_linear_1108_4103)"/>
</g>
<g opacity="0.9">
<path d="M187.49 124.292C183.444 123.243 181.946 124.908 182.911 128.87C186.258 145.936 191.186 171.626 198.828 179.268C204.189 184.629 211.315 187.359 218.358 187.359C225.401 187.359 232.526 184.629 237.888 179.268C243.249 173.906 245.979 166.781 245.979 159.738C245.979 152.695 243.249 145.569 237.888 140.208C230.146 132.466 204.556 127.621 187.49 124.292Z" fill="url(#paint5_linear_1108_4103)"/>
</g>
<g opacity="0.9">
<path d="M187.49 187.975C183.444 186.926 181.946 188.591 182.911 192.554C186.258 209.619 191.186 235.309 198.828 242.951C204.189 248.312 211.315 251.043 218.358 251.043C225.401 251.043 232.526 248.312 237.888 242.951C243.249 237.59 245.979 230.464 245.979 223.422C245.979 216.379 243.249 209.253 237.888 203.892C230.146 196.15 204.556 191.305 187.49 187.975Z" fill="url(#paint6_linear_1108_4103)"/>
</g>
<g opacity="0.9">
<path d="M187.49 251.642C183.444 250.593 181.946 252.258 182.911 256.221C186.258 273.286 191.186 298.976 198.828 306.618C204.189 311.979 211.315 314.71 218.358 314.71C225.401 314.71 232.526 311.979 237.888 306.618C243.249 301.257 245.979 294.131 245.979 287.089C245.979 280.046 243.249 272.92 237.888 267.559C230.146 259.817 204.556 254.972 187.49 251.642Z" fill="url(#paint7_linear_1108_4103)"/>
</g>
<g opacity="0.9">
<path d="M222.387 100.549C222.387 108.141 225.5 115.101 230.479 120.079C235.457 125.057 242.416 128.171 250.008 128.171C257.6 128.171 264.56 125.057 269.538 120.079C274.516 115.101 277.629 108.141 277.629 100.549C277.629 89.7273 262.945 68.0832 253.238 53.6482C251.124 50.1685 248.876 50.0353 246.762 53.6482C237.055 68.0832 222.37 89.5941 222.37 100.549H222.387Z" fill="url(#paint8_linear_1108_4103)"/>
</g>
</g>
<defs>
<radialGradient id="paint0_radial_1108_4103" cx="0" cy="0" r="1" gradientUnits="userSpaceOnUse" gradientTransform="translate(277.53 392.687) rotate(90.0384) scale(49.8471 99.6959)">
<stop stop-color="#013256" stop-opacity="0.8"/>
<stop offset="1" stop-color="#013256"/>
</radialGradient>
<linearGradient id="paint1_linear_1108_4103" x1="274.7" y1="408.342" x2="109.997" y2="408.342" gradientUnits="userSpaceOnUse">
<stop stop-color="#D5ECE9" stop-opacity="0"/>
<stop offset="1" stop-color="#D5ECE9"/>
</linearGradient>
<linearGradient id="paint2_linear_1108_4103" x1="307.551" y1="152.357" x2="237.928" y2="152.357" gradientUnits="userSpaceOnUse">
<stop stop-color="#C8EEE9"/>
<stop offset="1" stop-color="#C8EEE9" stop-opacity="0"/>
</linearGradient>
<linearGradient id="paint3_linear_1108_4103" x1="307.551" y1="216.024" x2="237.928" y2="216.024" gradientUnits="userSpaceOnUse">
<stop stop-color="#C8EEE9"/>
<stop offset="1" stop-color="#C8EEE9" stop-opacity="0"/>
</linearGradient>
<linearGradient id="paint4_linear_1108_4103" x1="307.551" y1="279.691" x2="237.928" y2="279.691" gradientUnits="userSpaceOnUse">
<stop stop-color="#C8EEE9"/>
<stop offset="1" stop-color="#C8EEE9" stop-opacity="0"/>
</linearGradient>
<linearGradient id="paint5_linear_1108_4103" x1="236.158" y1="152.34" x2="166.535" y2="152.34" gradientUnits="userSpaceOnUse">
<stop stop-color="#C8EEE9"/>
<stop offset="1" stop-color="#C8EEE9" stop-opacity="0"/>
</linearGradient>
<linearGradient id="paint6_linear_1108_4103" x1="236.158" y1="216.024" x2="166.535" y2="216.024" gradientUnits="userSpaceOnUse">
<stop stop-color="#C8EEE9"/>
<stop offset="1" stop-color="#C8EEE9" stop-opacity="0"/>
</linearGradient>
<linearGradient id="paint7_linear_1108_4103" x1="236.158" y1="279.691" x2="166.535" y2="279.691" gradientUnits="userSpaceOnUse">
<stop stop-color="#C8EEE9"/>
<stop offset="1" stop-color="#C8EEE9" stop-opacity="0"/>
</linearGradient>
<linearGradient id="paint8_linear_1108_4103" x1="269.063" y1="85.5219" x2="208.333" y2="85.5219" gradientUnits="userSpaceOnUse">
<stop stop-color="#C8EEE9"/>
<stop offset="1" stop-color="#C8EEE9" stop-opacity="0"/>
</linearGradient>
<clipPath id="clip0_1108_4103">
<rect width="286.585" height="400" fill="white" transform="translate(106.708 50.9844)"/>
</clipPath>
</defs>
</svg>
