<svg width="500" height="501" viewBox="0 0 500 501" fill="none" xmlns="http://www.w3.org/2000/svg">
<path d="M449.941 166.085C449.01 152.207 436.422 141.709 422.006 141.709H101.625C95.6662 141.709 90.8171 146.378 90.8171 152.125V183.522C90.8171 189.285 95.6499 193.938 101.625 193.938H422.936C438.48 193.938 450.97 181.285 449.941 166.068V166.085Z" fill="#AAC7CB"/>
<path d="M449.941 166.085C449.01 152.207 436.422 141.709 422.006 141.709H101.625C95.6662 141.709 90.8171 146.378 90.8171 152.125V183.522C90.8171 189.285 95.6499 193.938 101.625 193.938H422.936C438.48 193.938 450.97 181.285 449.941 166.068V166.085Z" fill="#003155"/>
<path opacity="0.8" d="M335.653 133.628C334.641 119.75 321.041 109.252 305.482 109.252H102.491C96.0417 109.252 90.8171 113.922 90.8171 119.669V151.065C90.8171 156.828 96.0417 161.482 102.491 161.482H306.478C323.278 161.482 336.764 148.828 335.653 133.612V133.628Z" fill="#C8EEE9"/>
<path opacity="0.8" d="M124.597 86.4756H57.8364C53.5082 86.4756 49.9995 89.9843 49.9995 94.3124V210.543C49.9995 214.871 53.5082 218.38 57.8364 218.38H124.597C128.925 218.38 132.433 214.871 132.433 210.543V94.3124C132.433 89.9843 128.925 86.4756 124.597 86.4756Z" fill="url(#paint0_radial_1108_3355)"/>
<path d="M449.941 363.18C449.01 349.302 436.422 338.804 422.006 338.804H101.625C95.6662 338.804 90.8171 343.474 90.8171 349.221V380.617C90.8171 386.38 95.6499 391.034 101.625 391.034H422.936C438.48 391.034 450.97 378.38 449.941 363.164V363.18Z" fill="#003155"/>
<path opacity="0.8" d="M335.653 330.723C334.641 316.846 321.041 306.347 305.482 306.347H102.491C96.0417 306.347 90.8171 311.017 90.8171 316.764V348.16C90.8171 353.924 96.0417 358.577 102.491 358.577H306.478C323.278 358.577 336.764 345.924 335.653 330.707V330.723Z" fill="#C8EEE9"/>
<path opacity="0.8" d="M124.597 283.589H57.8364C53.5082 283.589 49.9995 287.098 49.9995 291.426V407.656C49.9995 411.984 53.5082 415.493 57.8364 415.493H124.597C128.925 415.493 132.433 411.984 132.433 407.656V291.426C132.433 287.098 128.925 283.589 124.597 283.589Z" fill="url(#paint1_radial_1108_3355)"/>
<defs>
<radialGradient id="paint0_radial_1108_3355" cx="0" cy="0" r="1" gradientUnits="userSpaceOnUse" gradientTransform="translate(91.2165 152.428) rotate(90.012) scale(56.7974 35.4958)">
<stop stop-color="#D5ECE9" stop-opacity="0.8"/>
<stop offset="1" stop-color="#D5ECE9"/>
</radialGradient>
<radialGradient id="paint1_radial_1108_3355" cx="0" cy="0" r="1" gradientUnits="userSpaceOnUse" gradientTransform="translate(91.2165 349.541) rotate(90.012) scale(56.7974 35.4958)">
<stop stop-color="#D5ECE9" stop-opacity="0.8"/>
<stop offset="1" stop-color="#D5ECE9"/>
</radialGradient>
</defs>
</svg>
