<svg width="500" height="501" viewBox="0 0 500 501" fill="none" xmlns="http://www.w3.org/2000/svg">
<g clip-path="url(#clip0_1108_4415)">
<path d="M40 229.135L40 405.841C40 415.035 47.4532 422.488 56.6473 422.488H443.353C452.547 422.488 460 415.035 460 405.841V229.135C460 219.941 452.547 212.488 443.353 212.488L56.6473 212.488C47.4532 212.488 40 219.941 40 229.135Z" fill="url(#paint0_radial_1108_4415)"/>
<path opacity="0.9" d="M250 359.469C327.316 359.469 389.994 296.791 389.994 219.475C389.994 142.159 327.316 79.4814 250 79.4814C172.684 79.4814 110.006 142.159 110.006 219.475C110.006 296.791 172.684 359.469 250 359.469Z" fill="url(#paint1_linear_1108_4415)"/>
<path d="M315.329 196.146H273.329V154.146C273.329 151.569 271.248 149.488 268.671 149.488H231.329C228.752 149.488 226.671 151.569 226.671 154.146V196.146H184.671C182.094 196.146 180.013 198.227 180.013 200.804V238.146C180.013 240.723 182.094 242.804 184.671 242.804H226.671V284.804C226.671 287.381 228.752 289.462 231.329 289.462H268.671C271.248 289.462 273.329 287.381 273.329 284.804V242.804H315.329C317.906 242.804 319.987 240.723 319.987 238.146V200.804C319.987 198.227 317.906 196.146 315.329 196.146Z" fill="white"/>
</g>
<defs>
<radialGradient id="paint0_radial_1108_4415" cx="0" cy="0" r="1" gradientUnits="userSpaceOnUse" gradientTransform="translate(250 317.488) scale(180.851 90.4253)">
<stop stop-color="#013256" stop-opacity="0.8"/>
<stop offset="1" stop-color="#013256"/>
</radialGradient>
<linearGradient id="paint1_linear_1108_4415" x1="250" y1="79.4814" x2="250" y2="507.086" gradientUnits="userSpaceOnUse">
<stop stop-color="#D5ECE9"/>
<stop offset="1" stop-color="#D5ECE9" stop-opacity="0"/>
</linearGradient>
<clipPath id="clip0_1108_4415">
<rect width="420" height="343.006" fill="white" transform="translate(40 79.4814)"/>
</clipPath>
</defs>
</svg>
