<svg width="500" height="501" viewBox="0 0 500 501" fill="none" xmlns="http://www.w3.org/2000/svg">
<g clip-path="url(#clip0_1108_3855)">
<path d="M167.473 184.312H65.8545C57.0983 184.312 50 191.41 50 200.166V301.784C50 310.54 57.0983 317.639 65.8545 317.639H167.473C176.229 317.639 183.327 310.54 183.327 301.784V200.166C183.327 191.41 176.229 184.312 167.473 184.312Z" fill="url(#paint0_radial_1108_3855)"/>
<path d="M434.145 184.312H332.527C323.771 184.312 316.673 191.41 316.673 200.166V301.784C316.673 310.54 323.771 317.639 332.527 317.639H434.145C442.902 317.639 450 310.54 450 301.784V200.166C450 191.41 442.902 184.312 434.145 184.312Z" fill="url(#paint1_radial_1108_3855)"/>
<path d="M316.673 168.457V66.8389C316.673 58.0827 309.574 50.9844 300.818 50.9844L199.2 50.9844C190.444 50.9844 183.345 58.0827 183.345 66.8389V168.457C183.345 177.213 190.444 184.312 199.2 184.312H300.818C309.574 184.312 316.673 177.213 316.673 168.457Z" fill="url(#paint2_radial_1108_3855)"/>
<path d="M316.655 435.111V333.493C316.655 324.737 309.556 317.639 300.8 317.639H199.182C190.426 317.639 183.327 324.737 183.327 333.493V435.111C183.327 443.868 190.426 450.966 199.182 450.966H300.8C309.556 450.966 316.655 443.868 316.655 435.111Z" fill="url(#paint3_radial_1108_3855)"/>
<path opacity="0.6" d="M389.691 95.4209H110.291C101.535 95.4209 94.4364 102.519 94.4364 111.275V390.675C94.4364 399.432 101.535 406.53 110.291 406.53H389.691C398.447 406.53 405.546 399.432 405.546 390.675V111.275C405.546 102.519 398.447 95.4209 389.691 95.4209Z" fill="#C8EEE9"/>
<path opacity="0.8" d="M345.255 139.875H154.745C145.989 139.875 138.891 146.974 138.891 155.73V346.239C138.891 354.995 145.989 362.094 154.745 362.094H345.255C354.011 362.094 361.109 354.995 361.109 346.239V155.73C361.109 146.974 354.011 139.875 345.255 139.875Z" fill="#C8EEE9"/>
</g>
<defs>
<radialGradient id="paint0_radial_1108_3855" cx="0" cy="0" r="1" gradientUnits="userSpaceOnUse" gradientTransform="translate(116.664 250.975) rotate(90.0192) scale(57.4103)">
<stop stop-color="#013256" stop-opacity="0.8"/>
<stop offset="1" stop-color="#013256"/>
</radialGradient>
<radialGradient id="paint1_radial_1108_3855" cx="0" cy="0" r="1" gradientUnits="userSpaceOnUse" gradientTransform="translate(383.336 250.975) rotate(90.0192) scale(57.4103)">
<stop stop-color="#013256" stop-opacity="0.8"/>
<stop offset="1" stop-color="#013256"/>
</radialGradient>
<radialGradient id="paint2_radial_1108_3855" cx="0" cy="0" r="1" gradientUnits="userSpaceOnUse" gradientTransform="translate(250.009 117.648) rotate(-179.981) scale(57.4103)">
<stop stop-color="#013256" stop-opacity="0.8"/>
<stop offset="1" stop-color="#013256"/>
</radialGradient>
<radialGradient id="paint3_radial_1108_3855" cx="0" cy="0" r="1" gradientUnits="userSpaceOnUse" gradientTransform="translate(249.991 384.302) rotate(-179.981) scale(57.4103)">
<stop stop-color="#013256" stop-opacity="0.8"/>
<stop offset="1" stop-color="#013256"/>
</radialGradient>
<clipPath id="clip0_1108_3855">
<rect width="400" height="400" fill="white" transform="translate(50 50.9844)"/>
</clipPath>
</defs>
</svg>
